#!OML:ASF F:\VICON\USERDATA\INSTALL\Justin_Nancy\Justin_Nancy.ASF
:FULLY-SPECIFIED
:DEGREES
175
root 5.86465 17.5426 -4.16374 1.05557 -29.4662 -1.79613
lowerback 7.93459 1.30603 2.8494
upperback 0.928382 2.07976 3.09983
thorax -3.50221 1.00281 1.38458
lowerneck -17.1751 -3.2472 -8.90888
upperneck 22.1145 -3.38766 5.17782
head 10.1372 -1.73367 2.84981
rclavicle -6.75868e-015 -1.51076e-014
rhumerus -29.1577 -14.0777 -78.3272
rradius 33.8299
rwrist 3.88185
rhand -12.2834 13.8967
rfingers 7.12502
rthumb 13.7839 -15.6266
lclavicle -6.75868e-015 -1.51076e-014
lhumerus -32.3063 11.9267 82.6119
lradius 26.7191
lwrist -9.61444
lhand -15.4922 24.9074
lfingers 7.12502
lthumb 10.69 54.6154
rfemur -7.43829 1.31837 32.788
rtibia 21.3871
rfoot -12.3696 -3.08117
rtoes 13.4105
lfemur -25.9931 0.279081 -14.7528
ltibia 58.1095
lfoot -10.2756 1.20557
ltoes -21.2072
176
root 5.8115 17.5344 -4.04259 1.19367 -29.7725 -1.66632
lowerback 7.84492 1.34757 2.98364
upperback 0.823404 2.14304 2.97479
thorax -3.55151 1.03108 1.17394
lowerneck -17.2662 -3.25209 -8.91271
upperneck 22.2189 -3.37447 5.12262
head 10.1902 -1.73471 2.83345
rclavicle -2.15681e-014 8.74653e-015
rhumerus -29.0782 -13.997 -78.4202
rradius 34.1076
rwrist 3.85725
rhand -12.8151 13.2176
rfingers 7.12502
rthumb 13.2714 -16.3399
lclavicle -2.15681e-014 8.74653e-015
lhumerus -32.594 11.7939 82.6523
lradius 26.8136
lwrist -9.70406
lhand -15.6543 24.6772
lfingers 7.12502
lthumb 10.5336 54.3933
rfemur -7.37033 1.05198 32.5873
rtibia 21.9211
rfoot -13.1126 -2.53792
rtoes 13.6382
lfemur -26.8876 -0.25805 -15.0498
ltibia 56.6521
lfoot -10.5451 1.57616
ltoes -18.8136
177
root 5.7601 17.5269 -3.92237 1.08545 -29.9548 -0.908609
lowerback 7.65541 1.38134 2.62901
upperback 0.837241 2.1383 2.6378
thorax -3.43073 1.03417 1.0284
lowerneck -18.1525 -3.36054 -8.56466
upperneck 22.5445 -3.48087 4.84208
head 10.4726 -1.77845 2.65819
rclavicle -8.94531e-016 7.95139e-016
rhumerus -28.8419 -13.5615 -78.8136
rradius 34.5248
rwrist 3.61635
rhand -12.8771 12.7109
rfingers 7.12502
rthumb 13.2117 -16.8504
lclavicle -8.94531e-016 7.95139e-016
lhumerus -32.4634 11.7376 82.6717
lradius 26.6721
lwrist -10.0793
lhand -16.3511 24.2713
lfingers 7.12502
lthumb 9.86141 54.0204
rfemur -7.36303 0.801958 31.7587
rtibia 22.4363
rfoot -13.7416 -1.93877
rtoes 14.2868
lfemur -27.9821 -1.51551 -15.7518
ltibia 54.6728
lfoot -10.1928 1.29782
ltoes -14.26
178
root 5.70378 17.5096 -3.81622 1.14861 -30.2642 -0.596611
lowerback 7.69522 1.47171 2.38202
upperback 0.779347 2.23897 2.53357
thorax -3.51821 1.08654 1.04643
lowerneck -18.4965 -3.42726 -8.41235
upperneck 22.5 -3.5395 4.66608
head 10.52 -1.80751 2.55768
rclavicle -5.24792e-014 1.90833e-014
rhumerus -28.6153 -13.1414 -79.0269
rradius 34.8718
rwrist 3.33025
rhand -13.0482 12.8014
rfingers 7.12502
rthumb 13.0467 -16.7705
lclavicle -5.24792e-014 1.90833e-014
lhumerus -32.52 11.6375 82.818
lradius 26.603
lwrist -10.3421
lhand -16.7422 24.2533
lfingers 7.12502
lthumb 9.48405 54.0199
rfemur -7.26558 1.12186 31.4596
rtibia 22.78
rfoot -14.2464 -1.83724
rtoes 14.8855
lfemur -28.6468 -2.0696 -16.0948
ltibia 52.7886
lfoot -10.4246 1.36699
ltoes -15.5802
179
root 5.64131 17.4936 -3.70426 1.28889 -30.6955 -0.700738
lowerback 7.82233 1.53763 2.40046
upperback 0.693117 2.33859 2.58455
thorax -3.68055 1.13426 1.07375
lowerneck -18.1139 -3.33815 -8.46613
upperneck 22.1263 -3.42232 4.66904
head 10.3042 -1.75827 2.58289
rclavicle 4.31363e-014 -1.59028e-014
rhumerus -28.5295 -12.8226 -79.0125
rradius 35.0721
rwrist 3.40237
rhand -12.9121 13.1482
rfingers 7.12502
rthumb 13.178 -16.4153
lclavicle 4.31363e-014 -1.59028e-014
lhumerus -32.798 11.8065 82.8882
lradius 26.6384
lwrist -10.467
lhand -16.3286 24.6559
lfingers 7.12502
lthumb 9.88319 54.4039
rfemur -6.86626 1.4192 31.5943
rtibia 22.768
rfoot -14.5388 -2.11746
rtoes 12.3474
lfemur -29.041 -2.41307 -16.0184
ltibia 50.8401
lfoot -10.5941 0.384131
ltoes -9.38408
180
root 5.57847 17.4875 -3.58178 1.51671 -31.1687 -1.09509
lowerback 7.87203 1.60565 2.83142
upperback 0.718516 2.46771 2.62634
thorax -3.66615 1.19132 0.861122
lowerneck -18.2114 -3.29361 -8.55222
upperneck 22.1163 -3.37601 4.86903
head 10.3202 -1.71919 2.67533
rclavicle 3.27995e-014 2.22639e-014
rhumerus -28.4672 -12.2179 -79.1469
rradius 35.4533
rwrist 2.94174
rhand -12.7109 12.8367
rfingers 7.12502
rthumb 13.3719 -16.7142
lclavicle 3.27995e-014 2.22639e-014
lhumerus -32.8101 11.9933 82.8955
lradius 26.5124
lwrist -10.6489
lhand -16.1722 24.617
lfingers 7.12502
lthumb 10.034 54.3578
rfemur -6.19183 1.39021 31.9259
rtibia 22.4427
rfoot -14.4752 -1.92735
rtoes 8.74895
lfemur -29.2695 -2.60439 -15.7626
ltibia 49.0874
lfoot -10.5718 0.985897
ltoes -7.52783
181
root 5.50938 17.497 -3.45151 1.82754 -31.6143 -1.47893
lowerback 7.71226 1.70944 3.36839
upperback 0.793283 2.63676 2.55777
thorax -3.47101 1.26897 0.478736
lowerneck -18.5471 -3.37487 -8.41435
upperneck 22.212 -3.5163 4.91977
head 10.4268 -1.76215 2.64942
rclavicle -5.22804e-014 -5.56597e-015
rhumerus -28.2547 -12.0025 -79.4219
rradius 35.7007
rwrist 2.63628
rhand -12.5889 12.4493
rfingers 7.12502
rthumb 13.4895 -17.0938
lclavicle -5.22804e-014 -5.56597e-015
lhumerus -32.6582 11.9531 82.8653
lradius 26.3332
lwrist -10.9152
lhand -16.6524 23.8863
lfingers 7.12502
lthumb 9.57077 53.6489
rfemur -5.64144 1.51707 32.2383
rtibia 22.2894
rfoot -14.5584 -1.75734
rtoes 6.73471
lfemur -29.8806 -2.95419 -15.4955
ltibia 47.2833
lfoot -10.2753 1.74449
ltoes -9.11804
182
root 5.44399 17.4868 -3.32987 2.06379 -31.9567 -1.7825
lowerback 7.68645 1.77548 3.69505
upperback 0.831005 2.74873 2.58575
thorax -3.4019 1.32075 0.315677
lowerneck -18.7162 -3.43885 -8.35231
upperneck 22.1913 -3.5731 4.78477
head 10.4521 -1.79624 2.58053
rclavicle -2.62396e-014 -1.59028e-015
rhumerus -27.9452 -11.9098 -79.5114
rradius 35.7521
rwrist 2.84583
rhand -12.5967 12.4852
rfingers 7.12502
rthumb 13.482 -17.0585
lclavicle -2.62396e-014 -1.59028e-015
lhumerus -32.7422 12.2145 82.8568
lradius 26.4525
lwrist -11.1187
lhand -16.3165 24.1453
lfingers 7.12502
lthumb 9.89478 53.8927
rfemur -4.88408 1.81912 32.4934
rtibia 21.7683
rfoot -14.7417 -1.82698
rtoes 6.9657
lfemur -30.2971 -3.39855 -15.2798
ltibia 45.3929
lfoot -10.0782 2.09301
ltoes -9.65125
183
root 5.38338 17.4251 -3.21369 2.35748 -32.4676 -2.15827
lowerback 7.69879 1.82961 3.95974
upperback 0.798814 2.84803 2.70364
thorax -3.43363 1.36553 0.2791
lowerneck -18.6944 -3.37687 -8.44947
upperneck 22.1989 -3.45347 4.76348
head 10.4436 -1.75292 2.60695
rclavicle -1.23843e-013 1.59028e-015
rhumerus -27.8155 -11.1859 -79.6442
rradius 36.0348
rwrist 2.57961
rhand -12.6863 12.1996
rfingers 7.12502
rthumb 13.3956 -17.3498
lclavicle -1.23843e-013 1.59028e-015
lhumerus -33.042 12.6535 82.8074
lradius 26.6768
lwrist -11.3684
lhand -15.4668 25.098
lfingers 7.12502
lthumb 10.7145 54.8048
rfemur -4.12749 2.21676 32.8039
rtibia 21.1866
rfoot -14.7885 -1.56405
rtoes 8.99305
lfemur -29.9218 -3.37637 -15.1385
ltibia 43.474
lfoot -10.7017 2.77738
ltoes -13.6932
184
root 5.30792 17.4531 -3.09194 2.64389 -32.874 -2.44328
lowerback 7.69438 1.85962 4.15781
upperback 0.738772 2.90958 2.78996
thorax -3.48703 1.39184 0.250964
lowerneck -18.6882 -3.28771 -8.48876
upperneck 22.2386 -3.31186 4.73802
head 10.4465 -1.69533 2.62578
rclavicle 5.36719e-015 -2.54444e-014
rhumerus -27.8355 -10.386 -79.8064
rradius 36.4672
rwrist 2.14742
rhand -12.9848 12.0283
rfingers 7.12502
rthumb 13.1079 -17.5398
lclavicle 5.36719e-015 -2.54444e-014
lhumerus -33.1676 12.7844 82.818
lradius 26.6925
lwrist -11.332
lhand -14.832 25.4662
lfingers 7.12502
lthumb 11.3268 55.1403
rfemur -3.4058 2.30679 33.0198
rtibia 20.5801
rfoot -14.7401 -1.26065
rtoes 8.8314
lfemur -30.6943 -4.23461 -14.6585
ltibia 41.4175
lfoot -10.9235 2.95067
ltoes -15.2077
185
root 5.23658 17.4571 -2.96839 2.84357 -33.1944 -2.61191
lowerback 7.68398 1.89534 4.35214
upperback 0.650226 2.9772 2.78925
thorax -3.56183 1.42019 0.134019
lowerneck -18.4335 -3.26092 -8.42491
upperneck 22.0774 -3.2938 4.66445
head 10.336 -1.69177 2.59059
rclavicle -2.49475e-014 -2.06736e-014
rhumerus -27.8582 -10.2291 -79.9006
rradius 36.643
rwrist 2.00186
rhand -13.1326 12.134
rfingers 7.12502
rthumb 12.9653 -17.4432
lclavicle -2.49475e-014 -2.06736e-014
lhumerus -33.2855 12.6072 82.9044
lradius 26.6277
lwrist -10.5731
lhand -15.1953 25.0867
lfingers 7.12502
lthumb 10.9764 54.7798
rfemur -2.70377 2.23153 33.1554
rtibia 20.0018
rfoot -14.7347 -1.06796
rtoes 6.60975
lfemur -31.1304 -4.91783 -14.4071
ltibia 39.3687
lfoot -9.90205 3.37111
ltoes -4.68867
